<svg width="110" height="110" viewBox="0 0 110 110" fill="none" xmlns="http://www.w3.org/2000/svg">
<g clip-path="url(#clip0_1_2)">
<path d="M14.2841 90V20.1818H43.125C48.3523 20.1818 52.8636 21.2045 56.6591 23.25C60.4773 25.2727 63.4205 28.1023 65.4886 31.7386C67.5568 35.3523 68.5909 39.5568 68.5909 44.3523C68.5909 49.1705 67.5341 53.3864 65.4205 57C63.3295 60.5909 60.3409 63.375 56.4545 65.3523C52.5682 67.3295 47.9545 68.3182 42.6136 68.3182H24.8182V55.0227H39.4773C42.0227 55.0227 44.1477 54.5795 45.8523 53.6932C47.5795 52.8068 48.8864 51.5682 49.7727 49.9773C50.6591 48.3636 51.1023 46.4886 51.1023 44.3523C51.1023 42.1932 50.6591 40.3295 49.7727 38.7614C48.8864 37.1705 47.5795 35.9432 45.8523 35.0795C44.125 34.2159 42 33.7841 39.4773 33.7841H31.1591V90H14.2841Z" fill="#FCDFEA"/>
<path d="M26.642 66V31.0909H41.0625C43.6761 31.0909 45.9318 31.6023 47.8295 32.625C49.7386 33.6364 51.2102 35.0511 52.2443 36.8693C53.2784 38.6761 53.7955 40.7784 53.7955 43.1761C53.7955 45.5852 53.267 47.6932 52.2102 49.5C51.1648 51.2955 49.6705 52.6875 47.7273 53.6761C45.7841 54.6648 43.4773 55.1591 40.8068 55.1591H31.9091V48.5114H39.2386C40.5114 48.5114 41.5739 48.2898 42.4261 47.8466C43.2898 47.4034 43.9432 46.7841 44.3864 45.9886C44.8295 45.1818 45.0511 44.2443 45.0511 43.1761C45.0511 42.0966 44.8295 41.1648 44.3864 40.3807C43.9432 39.5852 43.2898 38.9716 42.4261 38.5398C41.5625 38.108 40.5 37.892 39.2386 37.892H35.0795V66H26.642Z" fill="#F679A7"/>
<path d="M60.2727 34.5682V26.4545H98.5V34.5682H84.25V73H74.5227V34.5682H60.2727Z" fill="#FCDFEA"/>
<path d="M66.3182 32.8409V29.0909H92.5V32.8409H81.5227V64H77.2955V32.8409H66.3182Z" fill="#F679A7"/>
</g>
<defs>
<clipPath id="clip0_1_2">
<rect width="110" height="110" rx="20" fill="white"/>
</clipPath>
</defs>
</svg>
